# xmcd
#
# Track frame offsets: 
#        187
#        19040
#        38532
#        66817
#        86652
#        111065
#        132042
#        149505
#        175372
#        188547
#        212205
#        232765
#        247520
#
# Disc length: 3619 seconds
#
# Revision: 2
# Processed by: cddbd v1.5PL3 Copyright (c) Steve Scherf et al.
# Submitted via: ExactAudioCopy v0.95a3
#
DISCID=a00e210d
DTITLE=Al Kooper - Rekooperation
DYEAR=1994
DGENRE=Rock
TTITLE0=Downtime
TTITLE1=After The Lights Go Down Low
TTITLE2=When The Spell Is Broken
TTITLE3=How 'My Ever Going To Get Over You
TTITLE4=Sneakin Round The Barnyard
TTITLE5=Soul Twist-Ed
TTITLE6=Lookin' For Clues
TTITLE7=Honky Tonk
TTITLE8=Clean Up Woman
TTITLE9=Don't Be Cruel
TTITLE10=Alvino Johnson's Shuffle
TTITLE11=Johnny B. Goode
TTITLE12=I Wanna Little Girl
EXTD=
EXTT0=
EXTT1=
EXTT2=
EXTT3=
EXTT4=
EXTT5=
EXTT6=
EXTT7=
EXTT8=
EXTT9=
EXTT10=
EXTT11=
EXTT12=
PLAYORDER=
